ffmpeg started on 2026-01-18 at 20:30:20
Report written to "C:\Dev\OSPanel\domains\Java-AT\modules\ffmpeg\FFMetrics\reports\ssim_report-6.txt"
Log level: 32
Command line:
ffmpeg -hide_banner -nostdin -r 24000/1001 -i "F:\\Convert\\files\\[DC] Make Heroine ga Oosugiru - 07_Telegram_HEVC(162).mkv" -r 24000/1001 -i "F:\\Convert\\files\\[DC] Make Heroine ga Oosugiru - 07_Telegram.mp4" -lavfi "[0:v]settb=AVTB,setpts=PTS-STARTPTS,format=pix_fmts=yuv420p10le,fps=24000/1001,scale=1920:1080:flags=lanczos:param0=3:out_range=limited:out_color_matrix=bt709:out_chroma_loc=left,setsar=1/1,setdar=(1920/1080)*(1/1),colorspace=format=yuv420p10:range=tv:primaries=bt709:trc=bt709:space=bt709:fast=0[main];[1:v]settb=AVTB,setpts=PTS-STARTPTS,format=pix_fmts=yuv420p,fps=24000/1001,scale=1920:1080:flags=lanczos:param0=3:out_range=limited:out_color_matrix=bt709:out_chroma_loc=left,setsar=1.000,setdar=1.778,colorspace=format=yuv420p:range=tv:primaries=bt709:trc=bt709:space=bt709:fast=0[ref];[main][ref]ssim=eof_action=endall:stats_file='C\\:/Dev/OSPanel/domains/Java-AT/modules/ffmpeg/FFMetrics/logs/ssim_logfile-6.txt'" -f null -
Input #0, matroska,webm, from 'F:\Convert\files\[DC] Make Heroine ga Oosugiru - 07_Telegram_HEVC(162).mkv':
  Metadata:
    COMPATIBLE_BRANDS: isomiso2avc1mp41
    MAJOR_BRAND     : isom
    MINOR_VERSION   : 512
    ENCODER         : Lavf61.7.100
  Duration: 00:24:06.79, start: -0.021000, bitrate: 983 kb/s
  Stream #0:0: Video: hevc (Main 10), yuv420p10le(tv, bt709, progressive), 1920x1080 [SAR 1:1 DAR 16:9], 23.98 fps, 23.98 tbr, 1k tbn (default)
      Metadata:
        HANDLER_NAME    : VideoHandler
        VENDOR_ID       : [0][0][0][0]
        ENCODER         : Lavc61.19.100 libx265
        BPS             : 786383
        DURATION        : 00:24:06.569708333
        NUMBER_OF_FRAMES: 34683
        NUMBER_OF_BYTES : 142194795
        _STATISTICS_WRITING_APP: mkvpropedit v94.0 ('Initiate') 64-bit
        _STATISTICS_WRITING_DATE_UTC: 2026-01-18 10:05:52
        _STATISTICS_TAGS: BPS DURATION NUMBER_OF_FRAMES NUMBER_OF_BYTES
  Stream #0:1: Audio: aac (LC), 48000 Hz, stereo, fltp (default)
      Metadata:
        HANDLER_NAME    : SoundHandler
        VENDOR_ID       : [0][0][0][0]
        ENCODER         : Lavc61.19.100 aac
        BPS             : 193194
        DURATION        : 00:24:06.784000000
        NUMBER_OF_FRAMES: 67819
        NUMBER_OF_BYTES : 34938755
        _STATISTICS_WRITING_APP: mkvpropedit v94.0 ('Initiate') 64-bit
        _STATISTICS_WRITING_DATE_UTC: 2026-01-18 10:05:52
        _STATISTICS_TAGS: BPS DURATION NUMBER_OF_FRAMES NUMBER_OF_BYTES
Input #1, mov,mp4,m4a,3gp,3g2,mj2, from 'F:\Convert\files\[DC] Make Heroine ga Oosugiru - 07_Telegram.mp4':
  Metadata:
    major_brand     : isom
    minor_version   : 512
    compatible_brands: isomiso2avc1mp41
    encoder         : Lavf60.16.100
  Duration: 00:24:06.74, start: 0.000000, bitrate: 3764 kb/s
  Stream #1:0[0x1](und): Video: h264 (High) (avc1 / 0x31637661), yuv420p(tv, bt709, progressive), 1920x1080 [SAR 1:1 DAR 16:9], 3616 kb/s, 23.98 fps, 23.98 tbr, 24k tbn (default)
      Metadata:
        handler_name    : VideoHandler
        vendor_id       : [0][0][0][0]
        encoder         : Lavc60.31.102 h264_qsv
  Stream #1:1[0x2](und): Audio: aac (HE-AACv2) (mp4a / 0x6134706D), 48000 Hz, stereo, fltp, 144 kb/s (default)
      Metadata:
        handler_name    : SoundHandler
        vendor_id       : [0][0][0][0]
Stream mapping:
  Stream #0:0 (hevc) -> settb:default
  Stream #1:0 (h264) -> settb:default
  ssim:default -> Stream #0:0 (wrapped_avframe)
  Stream #0:1 -> #0:1 (aac (native) -> pcm_s16le (native))
Output #0, null, to 'pipe:':
  Metadata:
    COMPATIBLE_BRANDS: isomiso2avc1mp41
    MAJOR_BRAND     : isom
    MINOR_VERSION   : 512
    encoder         : Lavf61.7.100
  Stream #0:0: Video: wrapped_avframe, yuv420p10le(tv, bt709, progressive), 1920x1080 [SAR 1:1 DAR 16:9], q=2-31, 200 kb/s, 23.98 fps, 23.98 tbn
      Metadata:
        encoder         : Lavc61.19.100 wrapped_avframe
  Stream #0:1: Audio: pcm_s16le, 48000 Hz, stereo, s16, 1536 kb/s (default)
      Metadata:
        HANDLER_NAME    : SoundHandler
        VENDOR_ID       : [0][0][0][0]
        _STATISTICS_TAGS: BPS DURATION NUMBER_OF_FRAMES NUMBER_OF_BYTES
        BPS             : 193194
        DURATION        : 00:24:06.784000000
        NUMBER_OF_FRAMES: 67819
        NUMBER_OF_BYTES : 34938755
        _STATISTICS_WRITING_APP: mkvpropedit v94.0 ('Initiate') 64-bit
        _STATISTICS_WRITING_DATE_UTC: 2026-01-18 10:05:52
        encoder         : Lavc61.19.100 pcm_s16le
frame=  137 fps=0.0 q=-0.0 size=N/A time=00:00:05.71 bitrate=N/A speed=11.3x    frame=  333 fps=322 q=-0.0 size=N/A time=00:00:13.88 bitrate=N/A speed=13.4x    frame=  528 fps=341 q=-0.0 size=N/A time=00:00:22.02 bitrate=N/A speed=14.2x    frame=  724 fps=352 q=-0.0 size=N/A time=00:00:30.19 bitrate=N/A speed=14.7x    frame=  902 fps=351 q=-0.0 size=N/A time=00:00:37.62 bitrate=N/A speed=14.6x    frame= 1059 fps=342 q=-0.0 size=N/A time=00:00:44.16 bitrate=N/A speed=14.3x    frame= 1228 fps=340 q=-0.0 size=N/A time=00:00:51.21 bitrate=N/A speed=14.2x    frame= 1400 fps=340 q=-0.0 size=N/A time=00:00:58.39 bitrate=N/A speed=14.2x    frame= 1550 fps=335 q=-0.0 size=N/A time=00:01:04.64 bitrate=N/A speed=  14x    frame= 1715 fps=332 q=-0.0 size=N/A time=00:01:11.52 bitrate=N/A speed=13.9x    frame= 1888 fps=333 q=-0.0 size=N/A time=00:01:18.74 bitrate=N/A speed=13.9x    frame= 2049 fps=331 q=-0.0 size=N/A time=00:01:25.46 bitrate=N/A speed=13.8x    frame= 2170 fps=324 q=-0.0 size=N/A time=00:01:30.50 bitrate=N/A speed=13.5x    frame= 2333 fps=324 q=-0.0 size=N/A time=00:01:37.30 bitrate=N/A speed=13.5x    frame= 2476 fps=320 q=-0.0 size=N/A time=00:01:43.26 bitrate=N/A speed=13.3x    frame= 2627 fps=318 q=-0.0 size=N/A time=00:01:49.56 bitrate=N/A speed=13.3x    frame= 2810 fps=321 q=-0.0 size=N/A time=00:01:57.20 bitrate=N/A speed=13.4x    frame= 2988 fps=322 q=-0.0 size=N/A time=00:02:04.62 bitrate=N/A speed=13.4x    frame= 3183 fps=325 q=-0.0 size=N/A time=00:02:12.75 bitrate=N/A speed=13.6x    frame= 3389 fps=329 q=-0.0 size=N/A time=00:02:21.34 bitrate=N/A speed=13.7x    frame= 3584 fps=331 q=-0.0 size=N/A time=00:02:29.48 bitrate=N/A speed=13.8x    frame= 3781 fps=333 q=-0.0 size=N/A time=00:02:37.69 bitrate=N/A speed=13.9x    frame= 3969 fps=335 q=-0.0 size=N/A time=00:02:45.54 bitrate=N/A speed=  14x    frame= 4168 fps=337 q=-0.0 size=N/A time=00:02:53.84 bitrate=N/A speed=14.1x    frame= 4371 fps=339 q=-0.0 size=N/A time=00:03:02.30 bitrate=N/A speed=14.1x    frame= 4563 fps=340 q=-0.0 size=N/A time=00:03:10.31 bitrate=N/A speed=14.2x    frame= 4764 fps=342 q=-0.0 size=N/A time=00:03:18.69 bitrate=N/A speed=14.3x    frame= 4956 fps=343 q=-0.0 size=N/A time=00:03:26.70 bitrate=N/A speed=14.3x    frame= 5152 fps=345 q=-0.0 size=N/A time=00:03:34.88 bitrate=N/A speed=14.4x    frame= 5347 fps=346 q=-0.0 size=N/A time=00:03:43.01 bitrate=N/A speed=14.4x    frame= 5542 fps=347 q=-0.0 size=N/A time=00:03:51.14 bitrate=N/A speed=14.5x    frame= 5736 fps=348 q=-0.0 size=N/A time=00:03:59.23 bitrate=N/A speed=14.5x    frame= 5935 fps=349 q=-0.0 size=N/A time=00:04:07.53 bitrate=N/A speed=14.6x    frame= 6128 fps=350 q=-0.0 size=N/A time=00:04:15.58 bitrate=N/A speed=14.6x    frame= 6332 fps=351 q=-0.0 size=N/A time=00:04:24.09 bitrate=N/A speed=14.6x    frame= 6525 fps=352 q=-0.0 size=N/A time=00:04:32.14 bitrate=N/A speed=14.7x    frame= 6724 fps=353 q=-0.0 size=N/A time=00:04:40.44 bitrate=N/A speed=14.7x    frame= 6915 fps=353 q=-0.0 size=N/A time=00:04:48.41 bitrate=N/A speed=14.7x    frame= 7114 fps=354 q=-0.0 size=N/A time=00:04:56.71 bitrate=N/A speed=14.8x    frame= 7315 fps=354 q=-0.0 size=N/A time=00:05:05.09 bitrate=N/A speed=14.8x    frame= 7510 fps=355 q=-0.0 size=N/A time=00:05:13.22 bitrate=N/A speed=14.8x    frame= 7695 fps=355 q=-0.0 size=N/A time=00:05:20.94 bitrate=N/A speed=14.8x    frame= 7889 fps=356 q=-0.0 size=N/A time=00:05:29.03 bitrate=N/A speed=14.8x    frame= 8078 fps=356 q=-0.0 size=N/A time=00:05:36.91 bitrate=N/A speed=14.8x    frame= 8280 fps=357 q=-0.0 size=N/A time=00:05:45.34 bitrate=N/A speed=14.9x    frame= 8474 fps=357 q=-0.0 size=N/A time=00:05:53.43 bitrate=N/A speed=14.9x    frame= 8669 fps=358 q=-0.0 size=N/A time=00:06:01.56 bitrate=N/A speed=14.9x    frame= 8859 fps=358 q=-0.0 size=N/A time=00:06:09.49 bitrate=N/A speed=14.9x    frame= 9062 fps=358 q=-0.0 size=N/A time=00:06:17.96 bitrate=N/A speed=14.9x    frame= 9261 fps=359 q=-0.0 size=N/A time=00:06:26.26 bitrate=N/A speed=  15x    frame= 9457 fps=359 q=-0.0 size=N/A time=00:06:34.43 bitrate=N/A speed=  15x    frame= 9649 fps=360 q=-0.0 size=N/A time=00:06:42.44 bitrate=N/A speed=  15x    frame= 9843 fps=360 q=-0.0 size=N/A time=00:06:50.53 bitrate=N/A speed=  15x    frame=10041 fps=360 q=-0.0 size=N/A time=00:06:58.79 bitrate=N/A speed=  15x    frame=10234 fps=360 q=-0.0 size=N/A time=00:07:06.84 bitrate=N/A speed=  15x    frame=10424 fps=361 q=-0.0 size=N/A time=00:07:14.76 bitrate=N/A speed=  15x    frame=10619 fps=361 q=-0.0 size=N/A time=00:07:22.90 bitrate=N/A speed=15.1x    frame=10822 fps=361 q=-0.0 size=N/A time=00:07:31.36 bitrate=N/A speed=15.1x    frame=11018 fps=362 q=-0.0 size=N/A time=00:07:39.54 bitrate=N/A speed=15.1x    frame=11210 fps=362 q=-0.0 size=N/A time=00:07:47.55 bitrate=N/A speed=15.1x    frame=11404 fps=362 q=-0.0 size=N/A time=00:07:55.64 bitrate=N/A speed=15.1x    frame=11597 fps=362 q=-0.0 size=N/A time=00:08:03.69 bitrate=N/A speed=15.1x    frame=11795 fps=363 q=-0.0 size=N/A time=00:08:11.94 bitrate=N/A speed=15.1x    frame=11985 fps=363 q=-0.0 size=N/A time=00:08:19.87 bitrate=N/A speed=15.1x    frame=12186 fps=363 q=-0.0 size=N/A time=00:08:28.25 bitrate=N/A speed=15.1x    frame=12383 fps=363 q=-0.0 size=N/A time=00:08:36.47 bitrate=N/A speed=15.2x    frame=12578 fps=364 q=-0.0 size=N/A time=00:08:44.60 bitrate=N/A speed=15.2x    frame=12769 fps=364 q=-0.0 size=N/A time=00:08:52.57 bitrate=N/A speed=15.2x    frame=12965 fps=364 q=-0.0 size=N/A time=00:09:00.74 bitrate=N/A speed=15.2x    frame=13165 fps=364 q=-0.0 size=N/A time=00:09:09.09 bitrate=N/A speed=15.2x    frame=13358 fps=364 q=-0.0 size=N/A time=00:09:17.13 bitrate=N/A speed=15.2x    frame=13543 fps=364 q=-0.0 size=N/A time=00:09:24.85 bitrate=N/A speed=15.2x    frame=13740 fps=365 q=-0.0 size=N/A time=00:09:33.07 bitrate=N/A speed=15.2x    frame=13940 fps=365 q=-0.0 size=N/A time=00:09:41.41 bitrate=N/A speed=15.2x    frame=14125 fps=365 q=-0.0 size=N/A time=00:09:49.13 bitrate=N/A speed=15.2x    frame=14319 fps=365 q=-0.0 size=N/A time=00:09:57.22 bitrate=N/A speed=15.2x    frame=14513 fps=365 q=-0.0 size=N/A time=00:10:05.31 bitrate=N/A speed=15.2x    frame=14704 fps=365 q=-0.0 size=N/A time=00:10:13.27 bitrate=N/A speed=15.2x    frame=14901 fps=365 q=-0.0 size=N/A time=00:10:21.49 bitrate=N/A speed=15.2x    frame=15088 fps=365 q=-0.0 size=N/A time=00:10:29.29 bitrate=N/A speed=15.2x    frame=15264 fps=365 q=-0.0 size=N/A time=00:10:36.63 bitrate=N/A speed=15.2x    frame=15460 fps=365 q=-0.0 size=N/A time=00:10:44.81 bitrate=N/A speed=15.2x    frame=15657 fps=365 q=-0.0 size=N/A time=00:10:53.02 bitrate=N/A speed=15.2x    frame=15848 fps=365 q=-0.0 size=N/A time=00:11:00.99 bitrate=N/A speed=15.2x    frame=16044 fps=366 q=-0.0 size=N/A time=00:11:09.16 bitrate=N/A speed=15.2x    frame=16239 fps=366 q=-0.0 size=N/A time=00:11:17.30 bitrate=N/A speed=15.3x    frame=16436 fps=366 q=-0.0 size=N/A time=00:11:25.51 bitrate=N/A speed=15.3x    frame=16631 fps=366 q=-0.0 size=N/A time=00:11:33.65 bitrate=N/A speed=15.3x    frame=16823 fps=366 q=-0.0 size=N/A time=00:11:41.65 bitrate=N/A speed=15.3x    frame=17021 fps=366 q=-0.0 size=N/A time=00:11:49.91 bitrate=N/A speed=15.3x    frame=17219 fps=366 q=-0.0 size=N/A time=00:11:58.17 bitrate=N/A speed=15.3x    frame=17417 fps=367 q=-0.0 size=N/A time=00:12:06.43 bitrate=N/A speed=15.3x    frame=17605 fps=367 q=-0.0 size=N/A time=00:12:14.27 bitrate=N/A speed=15.3x    frame=17793 fps=367 q=-0.0 size=N/A time=00:12:22.11 bitrate=N/A speed=15.3x    frame=17996 fps=367 q=-0.0 size=N/A time=00:12:30.58 bitrate=N/A speed=15.3x    frame=18185 fps=367 q=-0.0 size=N/A time=00:12:38.46 bitrate=N/A speed=15.3x    frame=18368 fps=367 q=-0.0 size=N/A time=00:12:46.09 bitrate=N/A speed=15.3x    frame=18566 fps=367 q=-0.0 size=N/A time=00:12:54.39 bitrate=N/A speed=15.3x    frame=18768 fps=367 q=-0.0 size=N/A time=00:13:02.78 bitrate=N/A speed=15.3x    frame=18962 fps=367 q=-0.0 size=N/A time=00:13:10.87 bitrate=N/A speed=15.3x    frame=19155 fps=367 q=-0.0 size=N/A time=00:13:18.92 bitrate=N/A speed=15.3x    frame=19349 fps=368 q=-0.0 size=N/A time=00:13:27.01 bitrate=N/A speed=15.3x    frame=19550 fps=368 q=-0.0 size=N/A time=00:13:35.39 bitrate=N/A speed=15.3x    frame=19745 fps=368 q=-0.0 size=N/A time=00:13:43.53 bitrate=N/A speed=15.3x    frame=19943 fps=368 q=-0.0 size=N/A time=00:13:51.78 bitrate=N/A speed=15.3x    frame=20134 fps=368 q=-0.0 size=N/A time=00:13:59.75 bitrate=N/A speed=15.3x    frame=20338 fps=368 q=-0.0 size=N/A time=00:14:08.26 bitrate=N/A speed=15.4x    frame=20526 fps=368 q=-0.0 size=N/A time=00:14:16.10 bitrate=N/A speed=15.4x    frame=20714 fps=368 q=-0.0 size=N/A time=00:14:23.94 bitrate=N/A speed=15.4x    frame=20913 fps=368 q=-0.0 size=N/A time=00:14:32.24 bitrate=N/A speed=15.4x    frame=21110 fps=368 q=-0.0 size=N/A time=00:14:40.46 bitrate=N/A speed=15.4x    frame=21304 fps=369 q=-0.0 size=N/A time=00:14:48.55 bitrate=N/A speed=15.4x    frame=21498 fps=369 q=-0.0 size=N/A time=00:14:56.64 bitrate=N/A speed=15.4x    frame=21693 fps=369 q=-0.0 size=N/A time=00:15:04.77 bitrate=N/A speed=15.4x    frame=21887 fps=369 q=-0.0 size=N/A time=00:15:12.87 bitrate=N/A speed=15.4x    frame=22088 fps=369 q=-0.0 size=N/A time=00:15:21.25 bitrate=N/A speed=15.4x    frame=22276 fps=369 q=-0.0 size=N/A time=00:15:29.09 bitrate=N/A speed=15.4x    frame=22480 fps=369 q=-0.0 size=N/A time=00:15:37.60 bitrate=N/A speed=15.4x    frame=22677 fps=369 q=-0.0 size=N/A time=00:15:45.81 bitrate=N/A speed=15.4x    frame=22869 fps=369 q=-0.0 size=N/A time=00:15:53.82 bitrate=N/A speed=15.4x    frame=23064 fps=369 q=-0.0 size=N/A time=00:16:01.96 bitrate=N/A speed=15.4x    frame=23255 fps=369 q=-0.0 size=N/A time=00:16:09.92 bitrate=N/A speed=15.4x    frame=23456 fps=369 q=-0.0 size=N/A time=00:16:18.31 bitrate=N/A speed=15.4x    frame=23651 fps=370 q=-0.0 size=N/A time=00:16:26.44 bitrate=N/A speed=15.4x    frame=23842 fps=370 q=-0.0 size=N/A time=00:16:34.41 bitrate=N/A speed=15.4x    frame=24040 fps=370 q=-0.0 size=N/A time=00:16:42.66 bitrate=N/A speed=15.4x    frame=24239 fps=370 q=-0.0 size=N/A time=00:16:50.96 bitrate=N/A speed=15.4x    frame=24432 fps=370 q=-0.0 size=N/A time=00:16:59.01 bitrate=N/A speed=15.4x    frame=24630 fps=370 q=-0.0 size=N/A time=00:17:07.27 bitrate=N/A speed=15.4x    frame=24822 fps=370 q=-0.0 size=N/A time=00:17:15.28 bitrate=N/A speed=15.4x    frame=25024 fps=370 q=-0.0 size=N/A time=00:17:23.70 bitrate=N/A speed=15.4x    frame=25215 fps=370 q=-0.0 size=N/A time=00:17:31.67 bitrate=N/A speed=15.4x    frame=25416 fps=370 q=-0.0 size=N/A time=00:17:40.05 bitrate=N/A speed=15.4x    frame=25610 fps=370 q=-0.0 size=N/A time=00:17:48.15 bitrate=N/A speed=15.4x    frame=25802 fps=370 q=-0.0 size=N/A time=00:17:56.15 bitrate=N/A speed=15.4x    frame=26001 fps=370 q=-0.0 size=N/A time=00:18:04.45 bitrate=N/A speed=15.5x    frame=26195 fps=371 q=-0.0 size=N/A time=00:18:12.54 bitrate=N/A speed=15.5x    frame=26396 fps=371 q=-0.0 size=N/A time=00:18:20.93 bitrate=N/A speed=15.5x    frame=26588 fps=371 q=-0.0 size=N/A time=00:18:28.94 bitrate=N/A speed=15.5x    frame=26793 fps=371 q=-0.0 size=N/A time=00:18:37.49 bitrate=N/A speed=15.5x    frame=26978 fps=371 q=-0.0 size=N/A time=00:18:45.20 bitrate=N/A speed=15.5x    frame=27166 fps=371 q=-0.0 size=N/A time=00:18:53.04 bitrate=N/A speed=15.5x    frame=27360 fps=371 q=-0.0 size=N/A time=00:19:01.14 bitrate=N/A speed=15.5x    frame=27554 fps=371 q=-0.0 size=N/A time=00:19:09.23 bitrate=N/A speed=15.5x    frame=27748 fps=371 q=-0.0 size=N/A time=00:19:17.32 bitrate=N/A speed=15.5x    frame=27940 fps=371 q=-0.0 size=N/A time=00:19:25.33 bitrate=N/A speed=15.5x    frame=28132 fps=371 q=-0.0 size=N/A time=00:19:33.33 bitrate=N/A speed=15.5x    frame=28326 fps=371 q=-0.0 size=N/A time=00:19:41.43 bitrate=N/A speed=15.5x    frame=28530 fps=371 q=-0.0 size=N/A time=00:19:49.93 bitrate=N/A speed=15.5x    frame=28718 fps=371 q=-0.0 size=N/A time=00:19:57.77 bitrate=N/A speed=15.5x    frame=28903 fps=371 q=-0.0 size=N/A time=00:20:05.49 bitrate=N/A speed=15.5x    frame=29084 fps=371 q=-0.0 size=N/A time=00:20:13.04 bitrate=N/A speed=15.5x    frame=29271 fps=371 q=-0.0 size=N/A time=00:20:20.84 bitrate=N/A speed=15.5x    frame=29460 fps=371 q=-0.0 size=N/A time=00:20:28.72 bitrate=N/A speed=15.5x    frame=29646 fps=371 q=-0.0 size=N/A time=00:20:36.48 bitrate=N/A speed=15.5x    frame=29825 fps=371 q=-0.0 size=N/A time=00:20:43.95 bitrate=N/A speed=15.5x    frame=30002 fps=370 q=-0.0 size=N/A time=00:20:51.33 bitrate=N/A speed=15.4x    frame=30188 fps=370 q=-0.0 size=N/A time=00:20:59.09 bitrate=N/A speed=15.4x    frame=30379 fps=370 q=-0.0 size=N/A time=00:21:07.05 bitrate=N/A speed=15.4x    frame=30573 fps=370 q=-0.0 size=N/A time=00:21:15.14 bitrate=N/A speed=15.4x    frame=30765 fps=370 q=-0.0 size=N/A time=00:21:23.15 bitrate=N/A speed=15.4x    frame=30968 fps=370 q=-0.0 size=N/A time=00:21:31.62 bitrate=N/A speed=15.5x    frame=31159 fps=370 q=-0.0 size=N/A time=00:21:39.58 bitrate=N/A speed=15.5x    frame=31347 fps=370 q=-0.0 size=N/A time=00:21:47.43 bitrate=N/A speed=15.5x    frame=31537 fps=370 q=-0.0 size=N/A time=00:21:55.35 bitrate=N/A speed=15.5x    frame=31738 fps=371 q=-0.0 size=N/A time=00:22:03.73 bitrate=N/A speed=15.5x    frame=31924 fps=370 q=-0.0 size=N/A time=00:22:11.49 bitrate=N/A speed=15.5x    frame=32113 fps=370 q=-0.0 size=N/A time=00:22:19.37 bitrate=N/A speed=15.5x    frame=32304 fps=370 q=-0.0 size=N/A time=00:22:27.34 bitrate=N/A speed=15.5x    frame=32502 fps=371 q=-0.0 size=N/A time=00:22:35.60 bitrate=N/A speed=15.5x    frame=32670 fps=370 q=-0.0 size=N/A time=00:22:42.61 bitrate=N/A speed=15.4x    frame=32842 fps=370 q=-0.0 size=N/A time=00:22:49.78 bitrate=N/A speed=15.4x    frame=33020 fps=370 q=-0.0 size=N/A time=00:22:57.20 bitrate=N/A speed=15.4x    frame=33214 fps=370 q=-0.0 size=N/A time=00:23:05.30 bitrate=N/A speed=15.4x    frame=33398 fps=370 q=-0.0 size=N/A time=00:23:12.97 bitrate=N/A speed=15.4x    frame=33562 fps=370 q=-0.0 size=N/A time=00:23:19.81 bitrate=N/A speed=15.4x    frame=33718 fps=369 q=-0.0 size=N/A time=00:23:26.32 bitrate=N/A speed=15.4x    frame=33853 fps=369 q=-0.0 size=N/A time=00:23:31.95 bitrate=N/A speed=15.4x    frame=34011 fps=368 q=-0.0 size=N/A time=00:23:38.54 bitrate=N/A speed=15.4x    frame=34183 fps=368 q=-0.0 size=N/A time=00:23:45.71 bitrate=N/A speed=15.4x    frame=34333 fps=368 q=-0.0 size=N/A time=00:23:51.97 bitrate=N/A speed=15.3x    frame=34475 fps=367 q=-0.0 size=N/A time=00:23:57.89 bitrate=N/A speed=15.3x    frame=34675 fps=367 q=-0.0 size=N/A time=00:24:06.23 bitrate=N/A speed=15.3x    [Parsed_ssim_16 @ 00000164755147c0] SSIM Y:0.994162 (22.337343) U:0.993978 (22.202234) V:0.993584 (21.927199) All:0.994035 (22.243796)
[out#0/null @ 0000016468033a00] video:14903KiB audio:271276KiB subtitle:0KiB other streams:0KiB global headers:0KiB muxing overhead: unknown
frame=34683 fps=367 q=-0.0 Lsize=N/A time=00:24:06.57 bitrate=N/A speed=15.3x    
